<svg id="visual" viewBox="0 0 500 75" width="500" height="75" xmlns="http://www.w3.org/2000/svg" xmlns:xlink="http://www.w3.org/1999/xlink" version="1.1"><path d="M0 31L9.3 31.2C18.7 31.3 37.3 31.7 55.8 30C74.3 28.3 92.7 24.7 111.2 27.7C129.7 30.7 148.3 40.3 166.8 40.8C185.3 41.3 203.7 32.7 222.2 29.8C240.7 27 259.3 30 277.8 34.2C296.3 38.3 314.7 43.7 333.2 43.7C351.7 43.7 370.3 38.3 388.8 34C407.3 29.7 425.7 26.3 444.2 27.2C462.7 28 481.3 33 490.7 35.5L500 38L500 76L490.7 76C481.3 76 462.7 76 444.2 76C425.7 76 407.3 76 388.8 76C370.3 76 351.7 76 333.2 76C314.7 76 296.3 76 277.8 76C259.3 76 240.7 76 222.2 76C203.7 76 185.3 76 166.8 76C148.3 76 129.7 76 111.2 76C92.7 76 74.3 76 55.8 76C37.3 76 18.7 76 9.3 76L0 76Z" fill="#f7f7f7" stroke-linecap="round" stroke-linejoin="miter"></path></svg>