<?xml version="1.0" encoding="utf-8"?>
<!-- Generator: Adobe Illustrator 27.5.0, SVG Export Plug-In . SVG Version: 6.00 Build 0)  -->
<svg version="1.1" xmlns="http://www.w3.org/2000/svg" xmlns:xlink="http://www.w3.org/1999/xlink" x="0px" y="0px"
	 viewBox="0 0 500 500" style="enable-background:new 0 0 500 500;" xml:space="preserve">
<g>
	<g>
		<polygon style="fill:#EEF1FF;" points="213.756,124.619 213.756,114.906 207.299,114.906 207.299,124.619 197.586,124.619 
			197.586,131.077 207.299,131.077 207.299,140.789 213.756,140.789 213.756,131.077 223.47,131.077 223.47,124.619 		"/>
		<polygon style="fill:#EEF1FF;" points="76.487,74.364 76.487,69.044 72.951,69.044 72.951,74.364 67.631,74.364 67.631,77.9 
			72.951,77.9 72.951,83.22 76.487,83.22 76.487,77.9 81.807,77.9 81.807,74.364 		"/>
		<polygon style="fill:#EEF1FF;" points="302.88,72.746 302.88,68.584 300.113,68.584 300.113,72.746 295.952,72.746 
			295.952,75.512 300.113,75.512 300.113,79.673 302.88,79.673 302.88,75.512 307.041,75.512 307.041,72.746 		"/>
		<polygon style="fill:#EEF1FF;" points="387.526,74.749 387.526,70.587 384.76,70.587 384.76,74.749 380.598,74.749 
			380.598,77.515 384.76,77.515 384.76,81.676 387.526,81.676 387.526,77.515 391.688,77.515 391.688,74.749 		"/>
		<polygon style="fill:#EEF1FF;" points="68.788,275.307 68.788,265.593 62.331,265.593 62.331,275.307 52.619,275.307 
			52.619,281.764 62.331,281.764 62.331,291.477 68.788,291.477 68.788,281.764 78.502,281.764 78.502,275.307 		"/>
		<polygon style="fill:#EEF1FF;" points="161.233,208.701 161.233,203.38 157.697,203.38 157.697,208.701 152.377,208.701 
			152.377,212.237 157.697,212.237 157.697,217.557 161.233,217.557 161.233,212.237 166.553,212.237 166.553,208.701 		"/>
		<polygon style="fill:#EEF1FF;" points="142.05,136.03 142.05,131.869 139.284,131.869 139.284,136.03 135.123,136.03 
			135.123,138.797 139.284,138.797 139.284,142.958 142.05,142.958 142.05,138.797 146.212,138.797 146.212,136.03 		"/>
		<polygon style="fill:#EEF1FF;" points="274.825,228.323 274.825,224.162 272.059,224.162 272.059,228.323 267.898,228.323 
			267.898,231.089 272.059,231.089 272.059,235.251 274.825,235.251 274.825,231.089 278.987,231.089 278.987,228.323 		"/>
		<polygon style="fill:#EEF1FF;" points="220.509,74.364 220.509,69.044 216.972,69.044 216.972,74.364 211.652,74.364 
			211.652,77.9 216.972,77.9 216.972,83.22 220.509,83.22 220.509,77.9 225.829,77.9 225.829,74.364 		"/>
		<polygon style="fill:#EEF1FF;" points="442.734,106.362 442.734,97.139 436.603,97.139 436.603,106.362 427.38,106.362 
			427.38,112.493 436.603,112.493 436.603,121.716 442.734,121.716 442.734,112.493 451.958,112.493 451.958,106.362 		"/>
	</g>
	<g>
		<circle style="fill:#CAD2F9;" cx="327.798" cy="104.614" r="3.646"/>
		<path style="fill:#CAD2F9;" d="M137.048,172.26c0,1.063-0.862,1.925-1.925,1.925c-1.063,0-1.925-0.862-1.925-1.925
			s0.862-1.925,1.925-1.925C136.186,170.335,137.048,171.197,137.048,172.26z"/>
		<path style="fill:#CAD2F9;" d="M142.592,73.287c0,1.063-0.862,1.925-1.925,1.925s-1.925-0.862-1.925-1.925
			s0.862-1.925,1.925-1.925S142.592,72.223,142.592,73.287z"/>
		<circle style="fill:#CAD2F9;" cx="62.676" cy="119.222" r="3.646"/>
		<path style="fill:#CAD2F9;" d="M235.466,100.705c0,1.063-0.862,1.925-1.925,1.925c-1.063,0-1.925-0.862-1.925-1.925
			s0.862-1.925,1.925-1.925C234.604,98.78,235.466,99.642,235.466,100.705z"/>
		<path style="fill:#CAD2F9;" d="M411.749,66.659c0,1.063-0.862,1.925-1.925,1.925s-1.925-0.862-1.925-1.925
			c0-1.063,0.862-1.925,1.925-1.925S411.749,65.596,411.749,66.659z"/>
		<path style="fill:#CAD2F9;" d="M451.777,155.596c0,1.063-0.862,1.925-1.925,1.925s-1.925-0.862-1.925-1.925
			s0.862-1.925,1.925-1.925S451.777,154.533,451.777,155.596z"/>
		<path style="fill:#CAD2F9;" d="M50.148,243.307c0,1.063-0.862,1.925-1.925,1.925c-1.063,0-1.925-0.862-1.925-1.925
			s0.862-1.925,1.925-1.925C49.286,241.382,50.148,242.243,50.148,243.307z"/>
	</g>
</g>
<g id="OBJECTS">
	<ellipse style="fill:#EDF0FC;" cx="250" cy="418.202" rx="229.709" ry="17.064"/>
	<g>
		<path style="fill:#EB725F;" d="M451.777,408.039c0,4.924-4.029,8.953-8.954,8.953H298.342c-4.924,0-8.953-4.029-8.953-8.953
			V183.658c0-4.924,4.029-8.953,8.953-8.953h144.481c4.924,0,8.954,4.029,8.954,8.953V408.039z"/>
		<g>
			<g>
				<path style="fill:#FFFFFF;" d="M439.669,228.749c0,3.078-2.518,5.596-5.596,5.596h-126.98c-3.078,0-5.596-2.518-5.596-5.596
					V195.07c0-3.078,2.518-5.596,5.596-5.596h126.98c3.078,0,5.596,2.518,5.596,5.596V228.749z"/>
				<g>
					<rect x="313.473" y="201.684" style="fill:#E3EBFC;" width="49.381" height="5.223"/>
					
						<rect x="370.926" y="201.684" transform="matrix(-1 -1.224647e-16 1.224647e-16 -1 780.7492 408.5908)" style="fill:#E3EBFC;" width="38.898" height="5.223"/>
					<rect x="417.658" y="201.684" style="fill:#EB725F;" width="10.036" height="5.223"/>
				</g>
				<g>
					
						<rect x="378.312" y="217.352" transform="matrix(-1 -1.224647e-16 1.224647e-16 -1 806.006 439.928)" style="fill:#E3EBFC;" width="49.381" height="5.223"/>
					<rect x="331.342" y="217.352" style="fill:#E3EBFC;" width="38.898" height="5.223"/>
					
						<rect x="313.473" y="217.352" transform="matrix(-1 -1.224647e-16 1.224647e-16 -1 636.9806 439.928)" style="fill:#EB725F;" width="10.036" height="5.223"/>
				</g>
			</g>
			<g>
				<path style="fill:#FFFFFF;" d="M439.669,284.708c0,3.078-2.518,5.596-5.596,5.596h-126.98c-3.078,0-5.596-2.518-5.596-5.596
					V251.03c0-3.078,2.518-5.596,5.596-5.596h126.98c3.078,0,5.596,2.518,5.596,5.596V284.708z"/>
				<g>
					<rect x="313.473" y="257.643" style="fill:#E3EBFC;" width="49.381" height="5.223"/>
					
						<rect x="370.926" y="257.643" transform="matrix(-1 -1.224647e-16 1.224647e-16 -1 780.7492 520.5096)" style="fill:#E3EBFC;" width="38.898" height="5.223"/>
					<rect x="417.658" y="257.643" style="fill:#EB725F;" width="10.036" height="5.223"/>
				</g>
				<g>
					
						<rect x="378.312" y="273.312" transform="matrix(-1 -1.224647e-16 1.224647e-16 -1 806.006 551.8468)" style="fill:#E3EBFC;" width="49.381" height="5.223"/>
					<rect x="331.342" y="273.312" style="fill:#E3EBFC;" width="38.898" height="5.223"/>
					
						<rect x="313.473" y="273.312" transform="matrix(-1 -1.224647e-16 1.224647e-16 -1 636.9806 551.8468)" style="fill:#EB725F;" width="10.036" height="5.223"/>
				</g>
			</g>
			<g>
				<path style="fill:#FFFFFF;" d="M439.669,340.668c0,3.078-2.518,5.596-5.596,5.596h-126.98c-3.078,0-5.596-2.518-5.596-5.596
					v-33.679c0-3.078,2.518-5.596,5.596-5.596h126.98c3.078,0,5.596,2.518,5.596,5.596V340.668z"/>
				<g>
					<rect x="313.473" y="313.603" style="fill:#E3EBFC;" width="49.381" height="5.223"/>
					
						<rect x="370.926" y="313.603" transform="matrix(-1 -1.224647e-16 1.224647e-16 -1 780.7492 632.4284)" style="fill:#E3EBFC;" width="38.898" height="5.223"/>
					<rect x="417.658" y="313.603" style="fill:#EB725F;" width="10.036" height="5.223"/>
				</g>
				<g>
					
						<rect x="378.312" y="329.271" transform="matrix(-1 -1.224647e-16 1.224647e-16 -1 806.006 663.7656)" style="fill:#E3EBFC;" width="49.381" height="5.223"/>
					<rect x="331.342" y="329.271" style="fill:#E3EBFC;" width="38.898" height="5.223"/>
					
						<rect x="313.473" y="329.271" transform="matrix(-1 -1.224647e-16 1.224647e-16 -1 636.9806 663.7656)" style="fill:#EB725F;" width="10.036" height="5.223"/>
				</g>
			</g>
			<g>
				<path style="fill:#FFFFFF;" d="M439.669,396.627c0,3.078-2.518,5.596-5.596,5.596h-126.98c-3.078,0-5.596-2.518-5.596-5.596
					v-33.679c0-3.078,2.518-5.596,5.596-5.596h126.98c3.078,0,5.596,2.518,5.596,5.596V396.627z"/>
				<g>
					<rect x="313.473" y="369.562" style="fill:#E3EBFC;" width="49.381" height="5.223"/>
					
						<rect x="370.926" y="369.562" transform="matrix(-1 -1.224647e-16 1.224647e-16 -1 780.7492 744.3472)" style="fill:#E3EBFC;" width="38.898" height="5.223"/>
					<rect x="417.658" y="369.562" style="fill:#EB725F;" width="10.036" height="5.223"/>
				</g>
				<g>
					
						<rect x="378.312" y="385.231" transform="matrix(-1 -1.224647e-16 1.224647e-16 -1 806.006 775.6844)" style="fill:#E3EBFC;" width="49.381" height="5.223"/>
					<rect x="331.342" y="385.231" style="fill:#E3EBFC;" width="38.898" height="5.223"/>
					
						<rect x="313.473" y="385.231" transform="matrix(-1 -1.224647e-16 1.224647e-16 -1 636.9806 775.6844)" style="fill:#EB725F;" width="10.036" height="5.223"/>
				</g>
			</g>
		</g>
	</g>
	<g>
		<g>
			<path style="fill:#6E7FDD;" d="M338.956,395.738c0,3.078-2.518,5.596-5.596,5.596H96.696c-3.078,0-5.596-2.518-5.596-5.596
				V248.903c0-3.078,2.518-5.596,5.596-5.596H333.36c3.078,0,5.596,2.518,5.596,5.596V395.738z"/>
			<rect x="102.259" y="252.529" style="fill:#B3C9F9;" width="225.539" height="131.525"/>
			<g>
				<path style="fill:#B3C9F9;" d="M74.719,391.975v19.488c0,3.485,2.851,6.336,6.336,6.336h267.947
					c3.485,0,6.336-2.851,6.336-6.336v-19.488H74.719z"/>
				<path style="fill:#FFFFFF;" d="M165.206,391.975v8.474c0,1.515,1.24,2.755,2.755,2.755h94.135c1.515,0,2.755-1.24,2.755-2.755
					v-8.474H165.206z"/>
			</g>
		</g>
		<g>
			<path style="fill:#FFFFFF;" d="M256.225,289.566c-7.192,0-13.843,2.297-19.277,6.186c-6.949-10.965-19.182-18.25-33.123-18.25
				c-21.558,0-39.045,17.406-39.189,38.93c-1.302-0.267-2.651-0.409-4.033-0.409c-11.01,0-19.936,8.926-19.936,19.936
				s8.926,19.936,19.936,19.936h95.622c18.316,0,33.164-14.848,33.164-33.164S274.541,289.566,256.225,289.566z"/>
			<g>
				<polygon style="fill:#EB725F;" points="233.541,311.446 228.089,305.995 215.028,319.055 201.967,305.995 196.515,311.446 
					209.576,324.507 196.515,337.567 201.967,343.019 215.028,329.958 228.089,343.019 233.541,337.567 220.48,324.507 				"/>
			</g>
		</g>
		<path style="opacity:0.1;fill:#0046A0;" d="M333.36,243.307h-30.207c5.77,26.995,18.994,126.406-92.624,148.668h128.428V248.903
			C338.956,245.825,336.438,243.307,333.36,243.307z"/>
	</g>
	<g>
		<g>
			<g>
				<g>
					<path style="fill:#FFCF74;" d="M93.518,374.002c-0.195-1.524-0.181-2.91-0.102-4.253c0.079-1.343,0.235-2.636,0.46-3.883
						c0.458-2.489,1.144-4.828,2.032-7.034c1.762-4.422,4.258-8.361,7.3-11.941c3.047-3.577,6.654-6.785,10.993-9.512
						c2.164-1.368,4.532-2.6,7.13-3.682c1.302-0.539,2.677-1.03,4.127-1.471c1.45-0.441,2.967-0.839,4.695-1.098
						c0.201,1.527,0.192,2.916,0.115,4.261c-0.076,1.345-0.228,2.64-0.452,3.888c-0.455,2.491-1.139,4.831-2.029,7.037
						c-1.767,4.419-4.266,8.356-7.324,11.925c-3.064,3.565-6.674,6.772-11.018,9.496c-2.165,1.367-4.531,2.601-7.127,3.684
						c-1.301,0.539-2.672,1.033-4.119,1.477C96.752,373.339,95.239,373.739,93.518,374.002z"/>
					<g>
						<defs>
							<path id="SVGID_1_" d="M93.518,374.002c-0.195-1.524-0.181-2.91-0.102-4.253c0.079-1.343,0.235-2.636,0.46-3.883
								c0.458-2.489,1.144-4.828,2.032-7.034c1.762-4.422,4.258-8.361,7.3-11.941c3.047-3.577,6.654-6.785,10.993-9.512
								c2.164-1.368,4.532-2.6,7.13-3.682c1.302-0.539,2.677-1.03,4.127-1.471c1.45-0.441,2.967-0.839,4.695-1.098
								c0.201,1.527,0.192,2.916,0.115,4.261c-0.076,1.345-0.228,2.64-0.452,3.888c-0.455,2.491-1.139,4.831-2.029,7.037
								c-1.767,4.419-4.266,8.356-7.324,11.925c-3.064,3.565-6.674,6.772-11.018,9.496c-2.165,1.367-4.531,2.601-7.127,3.684
								c-1.301,0.539-2.672,1.033-4.119,1.477C96.752,373.339,95.239,373.739,93.518,374.002z"/>
						</defs>
						<clipPath id="SVGID_00000100349228969322247810000016964162008727583117_">
							<use xlink:href="#SVGID_1_"  style="overflow:visible;"/>
						</clipPath>
						<polygon style="clip-path:url(#SVGID_00000100349228969322247810000016964162008727583117_);fill:#F9AB43;" points="
							132.809,350.177 132.727,349.754 111.901,352.847 120.293,343.025 141.628,339.856 141.546,339.432 120.72,342.525 
							127.432,334.67 127.04,334.413 117.416,345.675 117.682,324.798 117.192,324.793 116.919,346.257 108.597,355.997 
							108.862,335.12 108.372,335.115 108.099,356.579 99.777,366.318 100.043,345.441 99.553,345.436 99.28,366.901 95.657,371.14 
							96.049,371.398 102.654,363.668 123.989,360.499 123.907,360.075 103.081,363.168 111.474,353.346 						"/>
					</g>
				</g>
				<path style="opacity:0.1;fill:#0046A0;" d="M98.199,372.895c1.448-0.443,2.818-0.937,4.119-1.477
					c2.595-1.083,4.962-2.318,7.127-3.684c4.344-2.724,7.954-5.931,11.018-9.496c3.059-3.569,5.558-7.506,7.324-11.925
					c0.889-2.205,1.574-4.545,2.029-7.037c0.224-1.248,0.376-2.543,0.452-3.888c0.076-1.345,0.086-2.734-0.115-4.261l-36.636,42.875
					C95.239,373.739,96.752,373.339,98.199,372.895z"/>
			</g>
			<g>
				<g>
					<path style="fill:#FFCF74;" d="M93.087,374.283c-1.129-1.643-1.997-3.277-2.783-4.909c-0.787-1.632-1.477-3.26-2.081-4.885
						c-1.199-3.251-2.111-6.492-2.772-9.726c-1.34-6.467-1.762-12.904-1.504-19.319c0.266-6.415,1.23-12.806,3.108-19.168
						c0.932-3.181,2.12-6.354,3.594-9.518c0.741-1.582,1.573-3.16,2.499-4.736c0.926-1.576,1.935-3.148,3.208-4.713
						c1.137,1.643,2.01,3.277,2.799,4.909c0.79,1.632,1.485,3.26,2.09,4.886c1.202,3.251,2.117,6.493,2.777,9.726
						c1.334,6.467,1.753,12.904,1.473,19.318c-0.287,6.414-1.255,12.806-3.139,19.167c-0.934,3.181-2.119,6.354-3.59,9.518
						c-0.74,1.582-1.566,3.16-2.489,4.736C95.356,371.146,94.352,372.719,93.087,374.283z"/>
					<g>
						<defs>
							<path id="SVGID_00000122697019162973871550000012952169094817347462_" d="M93.087,374.283
								c-1.129-1.643-1.997-3.277-2.783-4.909c-0.787-1.632-1.477-3.26-2.081-4.885c-1.199-3.251-2.111-6.492-2.772-9.726
								c-1.34-6.467-1.762-12.904-1.504-19.319c0.266-6.415,1.23-12.806,3.108-19.168c0.932-3.181,2.12-6.354,3.594-9.518
								c0.741-1.582,1.573-3.16,2.499-4.736c0.926-1.576,1.935-3.148,3.208-4.713c1.137,1.643,2.01,3.277,2.799,4.909
								c0.79,1.632,1.485,3.26,2.09,4.886c1.202,3.251,2.117,6.493,2.777,9.726c1.334,6.467,1.753,12.904,1.473,19.318
								c-0.287,6.414-1.255,12.806-3.139,19.167c-0.934,3.181-2.119,6.354-3.59,9.518c-0.74,1.582-1.566,3.16-2.489,4.736
								C95.356,371.146,94.352,372.719,93.087,374.283z"/>
						</defs>
						<clipPath id="SVGID_00000044876766049335224120000011072748537941951919_">
							<use xlink:href="#SVGID_00000122697019162973871550000012952169094817347462_"  style="overflow:visible;"/>
						</clipPath>
						<polygon style="clip-path:url(#SVGID_00000044876766049335224120000011072748537941951919_);fill:#F9AB43;" points="
							110.651,317.695 110.314,317.257 94.955,336.079 95.704,318.446 111.438,299.164 111.101,298.727 95.743,317.549 
							96.342,303.447 95.852,303.431 94.993,323.65 81.969,298.993 81.558,299.345 94.948,324.696 94.205,342.181 81.182,317.524 
							80.771,317.876 94.161,343.227 93.418,360.712 80.395,336.054 79.984,336.406 93.374,361.757 93.051,369.368 93.54,369.384 
							94.13,355.507 109.864,336.225 109.527,335.788 94.168,354.61 94.917,336.976 						"/>
					</g>
				</g>
				<path style="opacity:0.1;fill:#0046A0;" d="M96.278,369.57c0.923-1.576,1.749-3.155,2.489-4.736
					c1.471-3.164,2.656-6.337,3.59-9.518c1.885-6.362,2.853-12.754,3.139-19.167c0.279-6.414-0.14-12.851-1.473-19.318
					c-0.659-3.233-1.575-6.475-2.777-9.726c-0.605-1.626-1.301-3.254-2.09-4.886c-0.79-1.632-1.663-3.266-2.799-4.909l-3.27,76.974
					C94.352,372.719,95.356,371.146,96.278,369.57z"/>
			</g>
			<g>
				<g>
					<path style="fill:#FFCF74;" d="M92.628,373.301c-1.832-0.254-3.466-0.659-5.039-1.109c-1.573-0.451-3.072-0.957-4.507-1.512
						c-2.862-1.116-5.507-2.396-7.961-3.82c-4.922-2.839-9.149-6.203-12.86-9.958c-3.706-3.759-6.882-7.919-9.365-12.603
						c-1.247-2.338-2.301-4.822-3.137-7.471c-0.415-1.327-0.762-2.705-1.037-4.138c-0.275-1.433-0.487-2.913-0.499-4.545
						c1.838,0.25,3.476,0.651,5.051,1.1c1.575,0.449,3.079,0.952,4.514,1.506c2.864,1.114,5.511,2.393,7.964,3.818
						c4.918,2.842,9.142,6.208,12.837,9.975c3.69,3.771,6.863,7.933,9.342,12.62c1.246,2.339,2.302,4.822,3.14,7.469
						c0.416,1.326,0.767,2.701,1.044,4.132C92.394,370.196,92.61,371.673,92.628,373.301z"/>
					<g>
						<defs>
							<path id="SVGID_00000022560871561817926230000002393386221962358190_" d="M92.628,373.301
								c-1.832-0.254-3.466-0.659-5.039-1.109c-1.573-0.451-3.072-0.957-4.507-1.512c-2.862-1.116-5.507-2.396-7.961-3.82
								c-4.922-2.839-9.149-6.203-12.86-9.958c-3.706-3.759-6.882-7.919-9.365-12.603c-1.247-2.338-2.301-4.822-3.137-7.471
								c-0.415-1.327-0.762-2.705-1.037-4.138c-0.275-1.433-0.487-2.913-0.499-4.545c1.838,0.25,3.476,0.651,5.051,1.1
								c1.575,0.449,3.079,0.952,4.514,1.506c2.864,1.114,5.511,2.393,7.964,3.818c4.918,2.842,9.142,6.208,12.837,9.975
								c3.69,3.771,6.863,7.933,9.342,12.62c1.246,2.339,2.302,4.822,3.14,7.469c0.416,1.326,0.767,2.701,1.044,4.132
								C92.394,370.196,92.61,371.673,92.628,373.301z"/>
						</defs>
						<clipPath id="SVGID_00000013152498658245669600000009099746702423591855_">
							<use xlink:href="#SVGID_00000022560871561817926230000002393386221962358190_"  style="overflow:visible;"/>
						</clipPath>
						<polygon style="clip-path:url(#SVGID_00000013152498658245669600000009099746702423591855_);fill:#F9AB43;" points="
							71.168,331.132 70.654,331.086 70.77,350.744 60.597,340.399 60.478,320.261 59.964,320.215 60.08,339.873 51.945,331.6 
							51.573,331.881 63.238,343.742 38.631,337.605 38.542,338.045 63.841,344.356 73.928,354.613 49.321,348.475 49.232,348.916 
							74.531,355.227 84.618,365.484 60.011,359.346 59.922,359.787 85.221,366.097 89.612,370.563 89.983,370.282 81.977,362.141 
							81.858,342.003 81.344,341.957 81.46,361.614 71.287,351.27 						"/>
					</g>
				</g>
				<path style="opacity:0.1;fill:#0046A0;" d="M92.116,368.766c-0.277-1.431-0.628-2.806-1.044-4.132
					c-0.839-2.647-1.894-5.13-3.14-7.469c-2.479-4.688-5.652-8.849-9.342-12.62c-3.695-3.767-7.92-7.133-12.837-9.975
					c-2.453-1.425-5.1-2.704-7.964-3.818c-1.435-0.555-2.939-1.058-4.514-1.507c-1.575-0.449-3.213-0.85-5.051-1.1l44.405,45.156
					C92.61,371.673,92.394,370.196,92.116,368.766z"/>
			</g>
		</g>
		<g>
			<g>
				<polygon style="fill:#EB725F;" points="116.953,417.798 69.573,417.798 64.749,368.006 120.973,368.006 				"/>
				<rect x="62.174" y="368.006" style="fill:#EB725F;" width="61.373" height="8.38"/>
			</g>
			<polygon style="opacity:0.1;fill:#0046A0;" points="65.561,376.385 120.297,376.385 119.144,390.667 66.019,381.116 			"/>
		</g>
	</g>
	<g>
		<g>
			<g>
				<path style="fill:#EB725F;" d="M100.137,229.706c-0.017,0-0.033,0-0.05,0c-7.216-0.033-13.872-1.108-20.353-3.289
					c-3.363-1.111-6.793-2.631-10.188-4.516c-1.523-0.876-3.304-1.936-5.122-3.254c-1.714-1.195-3.45-2.637-5.135-4.272l-1.16-1.125
					l1.16-1.125c1.686-1.635,3.422-3.077,5.159-4.288c1.795-1.301,3.576-2.362,5.078-3.225c3.416-1.896,6.846-3.417,10.216-4.531
					c6.472-2.177,13.128-3.253,20.339-3.286c0.016,0,0.033,0,0.05,0c7.146,0,13.788,1.061,20.308,3.246
					c3.376,1.114,6.807,2.637,10.193,4.523c1.531,0.885,3.318,1.955,5.123,3.269c1.708,1.195,3.444,2.646,5.135,4.296l1.15,1.122
					l-1.15,1.122c-1.69,1.649-3.426,3.101-5.159,4.313c-1.781,1.297-3.568,2.366-5.078,3.24c-3.409,1.899-6.84,3.421-10.22,4.537
					C113.921,228.644,107.279,229.706,100.137,229.706z M62.676,213.251c1.178,1.059,2.372,2.011,3.564,2.842
					c1.723,1.249,3.416,2.256,4.848,3.08c3.203,1.777,6.452,3.218,9.638,4.271c6.166,2.075,12.499,3.097,19.368,3.128
					c0.016,0,0.032,0,0.047,0c6.792,0,13.109-1.009,19.301-3.084c3.2-1.056,6.449-2.498,9.662-4.288
					c1.418-0.82,3.117-1.837,4.805-3.065c1.21-0.846,2.412-1.811,3.598-2.884c-1.185-1.072-2.382-2.033-3.574-2.866
					c-1.711-1.245-3.41-2.262-4.85-3.094c-3.191-1.777-6.44-3.22-9.634-4.274c-6.201-2.077-12.518-3.086-19.313-3.086
					c-0.017,0-0.031,0-0.048,0c-6.864,0.032-13.197,1.054-19.355,3.126c-3.193,1.055-6.443,2.497-9.666,4.286
					c-1.411,0.811-3.104,1.818-4.804,3.051C65.055,211.235,63.856,212.191,62.676,213.251z"/>
			</g>
			<path style="fill:#EB725F;" d="M107.563,210.777c-2.359,0-4.271-1.912-4.271-4.271c0-1.288,0.582-2.428,1.483-3.211
				c-1.425-0.673-3.01-1.06-4.69-1.06c-6.083,0-11.015,4.932-11.015,11.015c0,6.083,4.931,11.015,11.015,11.015
				c6.083,0,11.015-4.931,11.015-11.015c0-1.275-0.228-2.494-0.626-3.633C109.71,210.332,108.691,210.777,107.563,210.777z"/>
		</g>
		<g>
			
				<rect x="66.337" y="211.683" transform="matrix(0.7071 -0.7071 0.7071 0.7071 -121.4768 133.2303)" style="fill:#6E7FDD;" width="67.495" height="3.134"/>
		</g>
	</g>
	<g>
		<path style="fill:#FFCF74;" d="M222.707,231.409c-0.22-0.294-0.558-0.519-1.046-0.605c-0.252-0.097-0.485-0.13-0.703-0.124
			c-0.755-0.134-1.51-0.268-2.266-0.401c-0.45-1.617-1.095-3.167-1.921-4.627c0.579-0.79,1.172-1.58,1.669-2.412
			c1.263-2.115-0.437-3.596-1.803-4.962c-1.367-1.366-2.82-3.039-4.94-1.819c-0.844,0.486-1.642,1.094-2.438,1.683
			c-1.455-0.823-2.999-1.466-4.609-1.915c-0.149-0.973-0.288-1.957-0.528-2.9c-0.604-2.368-2.86-2.211-4.778-2.211
			c-1.918,0-4.137-0.157-4.773,2.184c-0.257,0.944-0.39,1.944-0.536,2.928c-1.61,0.45-3.154,1.093-4.608,1.916
			c-0.79-0.579-1.58-1.172-2.412-1.669c-2.116-1.263-3.596,0.437-4.962,1.803c-1.366,1.367-3.039,2.821-1.819,4.94
			c0.486,0.844,1.094,1.642,1.683,2.437c-0.823,1.455-1.466,2.999-1.915,4.609c-0.973,0.149-1.957,0.288-2.9,0.528
			c-2.368,0.604-2.21,2.86-2.21,4.778c0,1.918-0.157,4.137,2.184,4.773c0.944,0.257,1.944,0.39,2.928,0.536
			c0.45,1.61,1.093,3.154,1.916,4.609c-0.579,0.79-1.172,1.58-1.669,2.412c-1.263,2.116,0.437,3.596,1.803,4.962
			c1.366,1.366,2.82,3.039,4.94,1.819c0.844-0.486,1.642-1.094,2.437-1.683c1.455,0.823,2.999,1.466,4.609,1.915
			c0.149,0.973,0.288,1.957,0.528,2.9c0.604,2.368,2.86,2.211,4.778,2.211c1.918,0,4.137,0.157,4.773-2.184
			c0.257-0.944,0.39-1.944,0.536-2.928c1.61-0.45,3.154-1.093,4.609-1.916c0.79,0.579,1.58,1.172,2.412,1.669
			c2.115,1.263,3.596-0.437,4.962-1.803c1.367-1.366,3.039-2.821,1.819-4.94c-0.486-0.844-1.094-1.642-1.683-2.437
			c0.821-1.451,1.462-2.99,1.912-4.595c2.219-0.298,4.936-0.61,5.115-3.272c0.066-0.99,0-2.005,0-2.997
			C223.799,233.292,223.61,232.175,222.707,231.409z M199.35,242.886c-2.996-0.041-5.799-1.881-6.849-4.731
			c-1.076-2.921-0.201-6.187,2.162-8.201c2.318-1.976,5.764-2.229,8.376-0.698c2.631,1.543,4.114,4.695,3.496,7.706
			C205.832,240.392,202.843,242.839,199.35,242.886z"/>
		<path style="fill:#FFCF74;" d="M275.37,184.205c-0.553-2.166-0.952-4.881-3.836-4.825c-1.341,0.026-2.692,0.17-4.036,0.292
			c-1.138-2.057-2.547-3.944-4.195-5.62c0.498-1.26,1.021-2.521,1.421-3.806c0.854-2.743-1.688-3.9-3.6-5.034
			c-1.925-1.141-4.143-2.794-6.145-0.711c-0.928,0.965-1.781,2.016-2.643,3.05c-2.261-0.641-4.591-0.97-6.942-0.985
			c-0.543-1.253-1.068-2.527-1.701-3.728c-1.333-2.528-3.973-1.535-6.116-0.988c-2.166,0.553-4.881,0.952-4.825,3.837
			c0.026,1.341,0.17,2.692,0.292,4.036c-2.057,1.138-3.944,2.547-5.62,4.195c-1.26-0.498-2.52-1.021-3.806-1.421
			c-2.743-0.854-3.9,1.688-5.034,3.6c-1.141,1.925-2.794,4.143-0.711,6.145c0.965,0.928,2.016,1.781,3.05,2.643
			c-0.642,2.261-0.97,4.591-0.985,6.942c-1.253,0.543-2.527,1.068-3.728,1.701c-2.528,1.333-1.535,3.973-0.987,6.116
			c0.553,2.166,0.952,4.881,3.836,4.825c1.342-0.026,2.692-0.17,4.036-0.292c1.138,2.057,2.547,3.944,4.195,5.62
			c-0.498,1.26-1.021,2.52-1.421,3.806c-0.854,2.743,1.688,3.9,3.6,5.034c1.925,1.141,4.143,2.794,6.145,0.711
			c0.928-0.965,1.781-2.016,2.644-3.05c2.261,0.641,4.591,0.97,6.942,0.985c0.543,1.253,1.068,2.527,1.701,3.728
			c1.333,2.528,3.973,1.535,6.116,0.988c2.166-0.553,4.881-0.952,4.825-3.837c-0.026-1.341-0.17-2.692-0.292-4.036
			c2.051-1.134,3.932-2.538,5.605-4.18c2.463,1.065,5.733,2.685,7.505,0.082c0.696-1.022,1.273-2.147,1.904-3.211
			c0.851-1.435,1.501-2.783,0.826-4.228c-0.074-0.313-0.25-0.622-0.571-0.899c-0.135-0.158-0.279-0.272-0.426-0.367
			c-0.909-0.782-1.818-1.564-2.726-2.346c0.644-2.266,0.974-4.601,0.99-6.957c1.253-0.543,2.527-1.068,3.728-1.701
			C276.911,188.988,275.918,186.348,275.37,184.205z M237.81,204.525c-5.121-3.109-8.069-9.198-6.954-15.158
			c1.152-6.161,6.074-10.986,12.282-11.943c6.06-0.934,12.168,2.202,15.067,7.569c2.876,5.324,2.111,12.154-1.946,16.666
			C251.574,206.867,243.849,208.022,237.81,204.525z"/>
	</g>
	<g>
		<g>
			<path style="fill:#E3EBFC;" d="M422.676,168.424c0,5.874-5.905,10.681-13.122,10.681h-77.255
				c-7.217,0-13.122-4.806-13.122-10.681c0-5.874,5.905-10.681,13.122-10.681h77.255
				C416.771,157.743,422.676,162.55,422.676,168.424z"/>
			<path style="fill:#D0DBF7;" d="M349.897,157.743h-17.6c-7.217,0-13.122,4.806-13.122,10.681c0,5.874,5.905,10.681,13.122,10.681
				h17.6V157.743z"/>
		</g>
		<g>
			<path style="fill:#6E7FDD;" d="M343.582,174.735l-4.589-4.588c0.75-0.986,1.176-2.17,1.176-3.43c0-1.522-0.593-2.953-1.669-4.03
				c-1.076-1.077-2.508-1.669-4.03-1.669c-1.522,0-2.954,0.593-4.03,1.669c-1.077,1.077-1.669,2.508-1.669,4.03
				c0,1.522,0.593,2.954,1.669,4.03c1.076,1.077,2.508,1.669,4.03,1.669c1.259,0,2.444-0.426,3.429-1.176l4.589,4.588
				L343.582,174.735z M331.535,169.653c-0.784-0.784-1.216-1.827-1.216-2.936c0-1.109,0.432-2.151,1.216-2.936
				c0.784-0.784,1.827-1.216,2.936-1.216c1.109,0,2.151,0.432,2.936,1.216v0c0.784,0.784,1.216,1.827,1.216,2.936
				c0,1.109-0.432,2.152-1.216,2.936c-0.784,0.784-1.827,1.216-2.936,1.216C333.361,170.869,332.319,170.437,331.535,169.653z"/>
			<path style="fill:#6E7FDD;" d="M332.621,164.43l0.657,0.656c0.658-0.658,1.728-0.658,2.386,0l0.656-0.656
				C335.3,163.411,333.641,163.411,332.621,164.43z"/>
		</g>
	</g>
	<g>
		<g>
			<g>
				<g>
					<polygon style="fill:#F9AB43;" points="364.008,314.205 303.92,314.205 303.92,417.48 393.568,417.48 393.568,344.004 					"/>
					<polygon style="fill:#FFCF74;" points="364.008,314.205 393.688,343.884 364.008,343.884 					"/>
				</g>
			</g>
		</g>
		<g>
			<path style="fill:#FFFFFF;" d="M340.968,376.962c0-4.147,1.647-7.38,4.939-9.698l1.585-1.097
				c1.504-0.975,2.551-1.778,3.141-2.408c0.589-0.63,0.885-1.413,0.885-2.348c0-2.358-1.973-3.537-5.916-3.537
				c-1.829,0-3.72,0.244-5.672,0.732c-1.95,0.487-3.801,1.18-5.549,2.073v-9.391c3.74-1.707,7.928-2.561,12.562-2.561
				c5,0,8.965,1.047,11.891,3.141c2.927,2.094,4.391,4.99,4.391,8.689c0,2.074-0.467,3.75-1.402,5.031
				c-0.936,1.281-2.522,2.713-4.757,4.299c-1.504,1.098-2.603,1.942-3.294,2.531c-0.691,0.59-1.21,1.249-1.554,1.982
				c-0.346,0.732-0.518,1.627-0.518,2.682v1.16h-10.733V376.962z M342.218,391.566c-1.078-1.077-1.617-2.409-1.617-3.994
				c0-1.626,0.538-2.968,1.617-4.025c1.076-1.057,2.429-1.586,4.054-1.586c1.586,0,2.938,0.539,4.056,1.616
				c1.117,1.078,1.677,2.409,1.677,3.995c0,1.585-0.56,2.917-1.677,3.994c-1.118,1.077-2.47,1.616-4.056,1.616
				C344.647,393.182,343.294,392.643,342.218,391.566z"/>
		</g>
	</g>
	<g>
		<g>
			<path style="fill:#B3C9F9;" d="M111.686,148.049H100.35v-11.428H77.213v39.766h34.519v-28.292L111.686,148.049z M95.083,166.409
				c-0.431,0.415-0.951,0.622-1.562,0.622c-0.626,0-1.147-0.207-1.561-0.622c-0.415-0.415-0.623-0.928-0.623-1.538
				c0-0.626,0.207-1.143,0.623-1.55c0.414-0.407,0.935-0.61,1.561-0.61c0.61,0,1.131,0.207,1.562,0.622
				c0.43,0.415,0.646,0.928,0.646,1.538C95.729,165.482,95.513,165.995,95.083,166.409z M99.509,156.406
				c-0.361,0.493-0.971,1.045-1.832,1.655c-0.579,0.423-1.002,0.748-1.268,0.975c-0.266,0.227-0.466,0.481-0.598,0.763
				c-0.133,0.282-0.2,0.627-0.2,1.033v0.447h-4.133v-0.493c0-1.597,0.634-2.841,1.902-3.734l0.61-0.422
				c0.579-0.375,0.982-0.684,1.209-0.927c0.227-0.242,0.341-0.544,0.341-0.904c0-0.908-0.76-1.362-2.278-1.362
				c-0.704,0-1.432,0.094-2.184,0.282c-0.751,0.188-1.463,0.454-2.137,0.798V150.9c1.44-0.657,3.053-0.986,4.837-0.986
				c1.925,0,3.452,0.403,4.579,1.209c1.127,0.806,1.691,1.921,1.691,3.346C100.049,155.268,99.869,155.913,99.509,156.406z"/>
			<polygon style="fill:#B3C9F9;" points="102.277,137.636 102.277,146.101 110.674,146.101 			"/>
		</g>
		<g>
			<path style="fill:#B3C9F9;" d="M294.845,117.661h-13.658v-13.769H253.31v47.912h41.59v-34.088L294.845,117.661z M274.841,139.782
				c-0.519,0.5-1.146,0.749-1.882,0.749c-0.754,0-1.382-0.25-1.881-0.749c-0.5-0.5-0.75-1.118-0.75-1.853
				c0-0.754,0.25-1.377,0.75-1.867c0.499-0.49,1.127-0.736,1.881-0.736c0.736,0,1.363,0.25,1.882,0.75
				c0.518,0.5,0.778,1.117,0.778,1.853C275.619,138.664,275.359,139.282,274.841,139.782z M280.174,127.73
				c-0.434,0.594-1.17,1.259-2.207,1.994c-0.698,0.51-1.207,0.901-1.528,1.175c-0.321,0.273-0.561,0.579-0.721,0.919
				c-0.161,0.34-0.241,0.755-0.241,1.244v0.538h-4.979v-0.594c0-1.924,0.764-3.424,2.292-4.499l0.736-0.509
				c0.698-0.452,1.184-0.825,1.457-1.117c0.273-0.292,0.411-0.655,0.411-1.089c0-1.094-0.915-1.641-2.745-1.641
				c-0.849,0-1.726,0.113-2.631,0.34c-0.905,0.226-1.763,0.547-2.574,0.962v-4.357c1.735-0.792,3.678-1.188,5.828-1.188
				c2.32,0,4.159,0.486,5.517,1.457c1.358,0.972,2.037,2.315,2.037,4.031C280.824,126.358,280.607,127.136,280.174,127.73z"/>
			<polygon style="fill:#B3C9F9;" points="283.508,105.114 283.508,115.313 293.626,115.313 			"/>
		</g>
		<g>
			<path style="fill:#B3C9F9;" d="M189.388,88.894h-8.231v-8.298h-16.799v28.873h25.063V88.927L189.388,88.894z M177.332,102.225
				c-0.313,0.301-0.691,0.452-1.134,0.452c-0.455,0-0.833-0.151-1.134-0.452c-0.301-0.301-0.452-0.674-0.452-1.117
				c0-0.455,0.15-0.83,0.452-1.125c0.301-0.296,0.679-0.443,1.134-0.443c0.443,0,0.821,0.15,1.134,0.452
				c0.312,0.302,0.469,0.674,0.469,1.117C177.801,101.551,177.645,101.923,177.332,102.225z M180.546,94.962
				c-0.262,0.358-0.705,0.758-1.33,1.202c-0.421,0.307-0.728,0.543-0.921,0.708c-0.193,0.165-0.338,0.349-0.434,0.554
				c-0.097,0.205-0.145,0.455-0.145,0.75v0.324h-3.001v-0.358c0-1.16,0.46-2.063,1.381-2.711l0.443-0.307
				c0.421-0.272,0.713-0.497,0.878-0.673c0.165-0.176,0.247-0.395,0.247-0.656c0-0.659-0.552-0.989-1.654-0.989
				c-0.511,0-1.04,0.068-1.586,0.205c-0.545,0.136-1.063,0.33-1.551,0.58v-2.626c1.046-0.477,2.216-0.716,3.512-0.716
				c1.398,0,2.507,0.293,3.325,0.878c0.818,0.585,1.228,1.395,1.228,2.429C180.938,94.135,180.807,94.604,180.546,94.962z"/>
			<polygon style="fill:#B3C9F9;" points="182.556,81.332 182.556,87.479 188.653,87.479 			"/>
		</g>
	</g>
	<g>
		<g>
			<path style="fill:#EEF1FF;" d="M121.81,95.53c-1.87,0-3.599,0.597-5.012,1.608c-1.806-2.851-4.987-4.745-8.612-4.745
				c-5.605,0-10.151,4.525-10.189,10.121c-0.339-0.07-0.689-0.106-1.048-0.106c-2.862,0-5.183,2.321-5.183,5.183
				c0,2.863,2.321,5.183,5.183,5.183h24.86c4.762,0,8.622-3.86,8.622-8.622C130.432,99.391,126.572,95.53,121.81,95.53z"/>
			<polygon style="fill:#B3C9F9;" points="115.912,108.01 114.495,109.427 111.099,106.032 107.704,109.427 106.286,108.01 
				109.682,104.614 106.286,101.219 107.704,99.801 111.099,103.197 114.495,99.801 115.912,101.219 112.517,104.614 			"/>
		</g>
		<g>
			<path style="fill:#EEF1FF;" d="M191.728,155.96c-2.35,0-4.523,0.75-6.298,2.021c-2.27-3.583-6.267-5.963-10.822-5.963
				c-7.044,0-12.757,5.687-12.804,12.719c-0.426-0.087-0.866-0.134-1.318-0.134c-3.597,0-6.513,2.916-6.513,6.514
				c0,3.597,2.916,6.514,6.513,6.514h31.242c5.984,0,10.835-4.851,10.835-10.836S197.713,155.96,191.728,155.96z"/>
			<polygon style="fill:#B3C9F9;" points="184.317,171.643 182.536,173.424 178.268,169.157 174.001,173.424 172.22,171.643 
				176.487,167.376 172.22,163.108 174.001,161.327 178.268,165.594 182.536,161.327 184.317,163.108 180.049,167.376 			"/>
		</g>
		<g>
			<path style="fill:#EEF1FF;" d="M401.605,103.112c-4.066,0-7.827,1.299-10.899,3.498c-3.929-6.2-10.845-10.319-18.728-10.319
				c-12.189,0-22.076,9.841-22.158,22.011c-0.736-0.151-1.499-0.231-2.28-0.231c-6.225,0-11.272,5.047-11.272,11.272
				c0,6.225,5.046,11.272,11.272,11.272h54.065c10.356,0,18.751-8.395,18.751-18.751S411.961,103.112,401.605,103.112z"/>
			<polygon style="fill:#B3C9F9;" points="388.78,130.251 385.697,133.334 378.312,125.949 370.927,133.334 367.845,130.251 
				375.23,122.867 367.845,115.482 370.927,112.4 378.312,119.785 385.697,112.4 388.78,115.482 381.395,122.867 			"/>
		</g>
	</g>
</g>
</svg>
