<?xml version="1.0" standalone="no"?>
<svg
  version="1.0"
  xmlns="http://www.w3.org/2000/svg"
  viewBox="0 0 750 241"
  fill="#6090E0"
>
  <g transform="translate(0,241) scale(0.1,-0.1)" stroke="none">
    <path d="M797 2349 c-21 -11 -40 -26 -43 -33 -3 -8 6 -37 20 -65 20 -39 32
    -51 49 -51 25 0 97 45 97 61 0 14 -29 71 -48 92 -19 21 -28 21 -75 -4z"/>
    <path d="M990 2208 c-50 -29 -76 -50 -78 -64 -3 -23 83 -183 104 -191 7 -2 49
    14 94 38 66 36 80 47 80 67 0 25 -75 171 -94 184 -18 13 -29 9 -106 -34z"/>
    <path d="M525 2161 c-55 -27 -134 -72 -175 -102 -82 -58 -290 -257 -290 -276
    0 -8 14 -13 39 -13 l38 0 -35 -87 c-32 -77 -37 -101 -40 -193 -6 -165 34 -297
    144 -480 44 -72 54 -98 54 -134 0 -45 -32 -140 -75 -226 -14 -27 -25 -56 -25
    -64 0 -8 59 -96 131 -196 l131 -180 51 0 c51 0 53 -1 129 -77 l77 -76 47 24
    c69 35 164 134 206 215 67 130 81 204 82 444 l1 175 -34 73 -34 72 -36 -6
    c-108 -20 -214 -81 -261 -152 -28 -42 -31 -52 -26 -97 3 -27 9 -61 13 -74 4
    -17 3 -22 -5 -17 -18 11 -35 87 -28 132 9 68 25 91 98 140 99 67 106 85 58
    155 -48 72 -39 117 33 147 20 9 27 18 27 40 0 35 -40 82 -70 82 -29 0 -157
    -66 -208 -107 -54 -44 -74 -82 -78 -156 -3 -52 -9 -65 -45 -108 -56 -67 -77
    -77 -85 -44 -10 40 5 109 37 174 49 99 121 153 399 306 58 31 113 64 123 73
    23 20 22 64 -3 112 -24 47 -19 63 26 90 62 36 76 28 147 -82 l37 -58 54 5
    c163 12 210 149 93 273 -17 17 -41 32 -52 32 -12 0 -56 -18 -98 -40 -41 -22
    -84 -40 -94 -40 -12 0 -30 18 -48 50 -26 44 -34 50 -64 50 -45 0 -131 -49
    -131 -75 0 -11 12 -44 25 -74 l26 -54 -21 -22 c-12 -12 -37 -31 -56 -41 l-34
    -19 -25 30 c-43 52 -80 135 -68 154 6 9 46 35 89 58 86 46 114 72 114 109 0
    29 -62 156 -90 184 -32 32 -83 24 -195 -29z"/>
    <path d="M1492 1718 c-14 -14 -17 -484 -3 -506 4 -8 19 -12 32 -10 23 3 24 7
    27 81 l3 77 72 0 72 0 80 -80 c55 -55 86 -80 100 -78 43 6 28 39 -56 124 l-84
    84 -92 0 -93 0 0 136 0 136 88 -4 c55 -3 99 -11 119 -21 66 -35 81 -119 38
    -201 -14 -26 -25 -49 -25 -52 0 -2 16 -4 35 -4 29 0 39 6 54 31 26 43 35 117
    21 170 -15 56 -65 103 -124 118 -61 15 -248 15 -264 -1z"/>
    <path d="M2035 1720 c-41 -13 -91 -63 -107 -108 -8 -22 -13 -82 -13 -152 0
    -98 3 -121 22 -155 42 -80 88 -105 190 -105 81 0 138 25 171 73 34 50 42 91
    42 202 0 179 -53 246 -199 251 -42 2 -90 -1 -106 -6z m155 -56 c54 -22 80 -72
    87 -168 7 -91 -14 -170 -56 -210 -43 -42 -121 -48 -171 -14 -55 38 -65 67 -65
    200 0 131 10 157 76 190 42 22 77 23 129 2z"/>
    <path d="M2385 1718 c-3 -7 -4 -126 -3 -263 l3 -250 135 -3 c158 -3 209 10
    241 62 33 55 23 152 -21 196 l-20 20 22 30 c27 38 30 115 5 154 -35 53 -60 61
    -214 64 -114 3 -144 1 -148 -10z m260 -52 c82 -35 72 -131 -16 -158 -62 -18
    -63 -57 -2 -58 31 0 80 -45 88 -81 4 -17 2 -43 -5 -59 -18 -44 -64 -60 -169
    -60 l-91 0 0 99 0 100 53 3 c45 3 52 6 55 26 3 21 0 22 -52 22 l-56 0 0 90 0
    90 80 0 c47 0 95 -6 115 -14z"/>
    <path d="M2915 1718 c-40 -14 -84 -56 -102 -97 -8 -18 -17 -70 -20 -115 -9
    -136 20 -228 90 -280 22 -16 46 -22 110 -24 111 -5 159 20 201 101 26 51 29
    68 30 150 2 200 -62 278 -224 276 -30 0 -68 -5 -85 -11z m179 -63 c45 -30 61
    -80 61 -190 0 -87 -3 -105 -24 -142 -59 -102 -203 -97 -251 10 -14 31 -20 65
    -20 128 0 124 21 176 85 206 37 16 114 10 149 -12z"/>
    <path d="M3244 1716 c-13 -33 7 -36 202 -36 l195 0 -3 23 c-3 22 -4 22 -196
    25 -162 2 -193 0 -198 -12z"/>
    <path d="M3675 1718 c-3 -7 -4 -126 -3 -263 l3 -250 28 -3 27 -3 -2 263 -3
    263 -23 3 c-12 2 -24 -3 -27 -10z"/>
    <path d="M3883 1711 c-26 -12 -52 -36 -70 -62 -26 -39 -28 -51 -32 -157 -5
    -167 21 -236 103 -273 58 -26 166 -26 223 2 85 41 138 198 63 187 -17 -2 -26
    -14 -36 -46 -21 -72 -71 -112 -141 -112 -90 0 -140 59 -150 177 -11 138 31
    234 112 249 85 16 156 -26 178 -104 11 -36 19 -48 37 -50 45 -7 47 49 4 124
    -31 55 -79 77 -174 81 -58 3 -84 -1 -117 -16z"/>
    <path d="M4314 1711 c-97 -44 -99 -201 -3 -253 46 -25 93 -20 97 10 3 17 -2
    22 -18 22 -12 0 -35 13 -51 29 -76 77 10 193 112 151 28 -12 46 -39 63 -92 8
    -26 53 -23 61 2 10 33 -34 110 -75 132 -46 24 -132 23 -186 -1z"/>
    <path d="M4922 1718 c-14 -14 -17 -484 -3 -506 4 -8 19 -12 32 -10 l24 3 0
    260 c0 253 -1 260 -20 263 -11 1 -26 -3 -33 -10z"/>
    <path d="M5310 1715 c-25 -30 0 -35 195 -35 195 0 220 5 195 35 -10 12 -47 15
    -195 15 -148 0 -185 -3 -195 -15z"/>
    <path d="M5995 1721 c-92 -24 -127 -84 -133 -229 -5 -117 8 -181 45 -231 33
    -43 78 -61 156 -61 118 0 196 67 197 168 0 38 -2 42 -25 42 -16 0 -28 -7 -31
    -17 -3 -10 -13 -38 -22 -62 -41 -106 -194 -108 -240 -3 -11 26 -16 66 -16 137
    0 128 21 174 87 200 82 31 155 -8 181 -96 11 -36 18 -45 40 -47 24 -3 26 -1
    26 38 0 56 -33 112 -82 140 -43 24 -133 34 -183 21z"/>
    <path d="M6300 1489 l0 -230 28 3 27 3 3 228 2 227 -30 0 -30 0 0 -231z"/>
    <path d="M6650 1527 c0 -180 1 -196 23 -237 32 -63 65 -83 141 -88 83 -5 136
    22 166 83 18 37 20 62 20 238 l0 197 -30 0 -30 0 0 -180 c0 -131 -4 -190 -14
    -214 -45 -109 -173 -96 -205 22 -6 20 -11 112 -11 205 l0 167 -30 0 -30 0 0
    -193z"/>
    <path d="M7042 1463 l3 -258 120 -3 c66 -2 136 2 155 7 98 29 133 159 64 241
    l-26 30 21 26 c26 32 28 111 6 154 -26 51 -59 60 -210 60 l-135 0 2 -257z
    m253 201 c19 -8 45 -55 45 -82 0 -32 -38 -71 -76 -78 -28 -5 -34 -10 -32 -27
    2 -15 13 -23 38 -28 77 -16 109 -118 54 -170 -23 -21 -36 -24 -125 -27 l-99
    -4 0 101 0 100 53 3 c45 3 52 6 55 26 3 21 0 22 -52 22 l-56 0 0 85 0 85 89 0
    c49 0 97 -3 106 -6z"/>
    <path d="M3414 1647 c-2 -7 -3 -109 -2 -227 l3 -215 24 -3 c13 -2 28 2 32 10
    10 15 12 408 3 432 -7 19 -53 21 -60 3z"/>
    <path d="M5475 1648 c-3 -7 -4 -110 -3 -228 l3 -215 30 0 30 0 0 225 0 225
    -28 3 c-16 2 -29 -2 -32 -10z"/>
    <path d="M1142 1499 c-41 -23 -76 -47 -78 -54 -11 -28 88 -195 114 -194 23 0
    142 70 155 91 8 12 3 31 -23 80 -43 82 -69 118 -83 118 -7 0 -45 -19 -85 -41z"/>
    <path d="M5153 1510 c-13 -5 -32 -24 -43 -42 -18 -28 -21 -46 -18 -116 3 -80
    4 -85 36 -113 28 -25 40 -29 90 -29 93 0 133 45 131 152 0 79 -18 120 -59 140
    -37 19 -101 22 -137 8z m123 -51 c23 -26 31 -133 12 -169 -31 -58 -105 -64
    -133 -10 -23 44 -20 141 6 174 26 34 86 37 115 5z"/>
    <path d="M908 1459 c-44 -23 -47 -42 -18 -100 27 -52 42 -57 96 -31 52 26 55
    44 18 108 -29 49 -42 52 -96 23z"/>
    <path d="M4420 1462 c0 -11 14 -25 35 -35 37 -18 55 -49 55 -95 -2 -103 -172
    -111 -198 -9 -7 27 -13 32 -38 32 -26 0 -29 -3 -28 -33 2 -41 26 -77 67 -103
    45 -28 172 -24 214 7 94 70 47 254 -66 254 -33 0 -41 -4 -41 -18z"/>
    <path d="M4691 1442 c-5 -9 -9 -52 -10 -95 -1 -88 16 -117 69 -117 31 0 70 30
    70 54 0 8 5 16 12 18 22 8 -4 28 -36 28 -41 0 -48 -7 -33 -31 9 -14 9 -21 -1
    -31 -19 -19 -42 16 -42 64 0 36 2 38 31 38 38 0 35 24 -4 28 -18 2 -24 8 -20
    18 7 19 39 18 47 -1 6 -17 32 -20 41 -5 3 5 1 19 -5 30 -15 27 -104 29 -119 2z"/>
    <path d="M1003 1228 c-18 -11 -33 -27 -33 -36 0 -24 42 -101 59 -107 7 -3 33
    5 57 17 52 26 56 49 19 108 -29 46 -52 50 -102 18z"/>
    <path d="M6300 1225 l0 -25 155 0 155 0 0 25 0 25 -155 0 -155 0 0 -25z"/>
    <path d="M1500 910 c0 -189 0 -191 25 -215 33 -33 119 -36 159 -4 l26 20 0
    195 c0 185 -1 194 -19 194 -19 0 -20 -10 -23 -180 -3 -198 -4 -200 -64 -200
    -54 0 -59 15 -62 207 -3 163 -5 173 -23 173 -18 0 -19 -9 -19 -190z"/>
    <path d="M1980 1070 c0 -23 4 -30 20 -30 16 0 20 7 20 30 0 23 -4 30 -20 30
    -16 0 -20 -7 -20 -30z"/>
    <path d="M2860 1070 c0 -25 4 -30 25 -30 21 0 25 5 25 30 0 25 -4 30 -25 30
    -21 0 -25 -5 -25 -30z"/>
    <path d="M3696 1078 c-9 -12 -16 -42 -16 -65 0 -32 -4 -43 -15 -43 -8 0 -15
    -9 -15 -20 0 -11 7 -20 15 -20 13 0 15 -21 15 -130 0 -123 1 -130 20 -130 19
    0 20 7 20 130 l0 130 30 0 c23 0 30 4 30 20 0 16 -7 20 -30 20 -27 0 -30 3
    -30 33 0 37 15 57 42 57 11 0 18 7 18 20 0 30 -63 28 -84 -2z"/>
    <path d="M3945 1075 c-22 -21 -25 -33 -25 -95 0 -85 15 -105 88 -115 28 -4 56
    -13 62 -20 6 -7 10 -37 8 -67 l-3 -53 -43 -3 c-55 -4 -72 10 -72 59 0 35 -2
    39 -26 39 -27 0 -27 -1 -21 -57 8 -75 28 -93 104 -93 53 0 91 12 105 34 4 6 8
    46 8 88 0 100 -3 103 -132 132 -26 6 -28 10 -28 54 0 56 12 72 55 72 40 0 51
    -9 60 -47 5 -23 12 -33 26 -33 16 0 19 7 19 44 0 61 -31 86 -107 86 -44 0 -58
    -5 -78 -25z"/>
    <path d="M4380 1070 c0 -25 4 -30 25 -30 21 0 25 5 25 30 0 25 -4 30 -25 30
    -21 0 -25 -5 -25 -30z"/>
    <path d="M5560 1093 c0 -5 21 -101 46 -215 47 -205 48 -208 73 -208 26 0 27 4
    75 203 27 111 51 208 53 215 3 7 -4 12 -20 12 -30 0 -28 5 -73 -192 -16 -71
    -32 -128 -36 -128 -5 0 -8 6 -8 13 0 6 -14 78 -31 160 -30 139 -33 147 -55
    147 -13 0 -24 -3 -24 -7z"/>
    <path d="M5830 886 l0 -216 25 0 24 0 3 155 3 155 59 -155 59 -155 33 0 34 0
    0 215 0 215 -25 0 -25 0 0 -167 -1 -168 -63 165 c-62 163 -63 165 -94 168
    l-32 3 0 -215z"/>
    <path d="M6120 910 c0 -189 0 -191 25 -215 33 -33 119 -36 159 -4 l26 20 0
    195 c0 185 -1 194 -19 194 -19 0 -20 -10 -23 -180 -3 -198 -4 -200 -64 -200
    -54 0 -59 15 -62 207 -3 163 -5 173 -23 173 -18 0 -19 -9 -19 -190z"/>
    <path d="M6550 885 c0 -208 1 -215 20 -215 19 0 20 7 20 100 l0 100 70 0 70 0
    0 -100 0 -100 25 0 25 0 0 215 0 215 -25 0 c-25 0 -25 -1 -25 -90 l0 -90 -70
    0 -70 0 0 90 c0 83 -1 90 -20 90 -19 0 -20 -7 -20 -215z"/>
    <path d="M6863 1076 l-28 -24 -3 -166 c-3 -166 -3 -166 22 -191 21 -20 35 -25
    78 -25 65 0 94 18 108 68 17 61 13 82 -14 82 -20 0 -24 -6 -29 -41 -6 -47 -19
    -59 -62 -59 -51 0 -55 11 -55 161 0 152 6 169 59 169 35 0 50 -17 58 -64 5
    -30 10 -36 31 -36 24 0 25 2 19 53 -8 70 -38 97 -107 97 -37 0 -56 -6 -77 -24z"/>
    <path d="M7080 885 l0 -215 25 0 25 0 1 163 0 162 47 -160 c44 -149 49 -160
    71 -160 23 0 28 12 77 170 l53 170 0 -172 c1 -166 2 -173 21 -173 19 0 20 7
    20 216 l0 215 -32 -3 -33 -3 -49 -162 c-28 -90 -53 -163 -56 -163 -4 0 -19 44
    -34 98 -69 246 -63 232 -101 232 l-35 0 0 -215z"/>
    <path d="M2960 1005 c0 -24 -5 -35 -15 -35 -8 0 -15 -9 -15 -20 0 -11 7 -20
    15 -20 12 0 15 -19 15 -114 0 -129 8 -146 65 -146 44 0 65 22 65 71 0 32 -3
    39 -20 39 -15 0 -20 -7 -20 -29 0 -35 -15 -48 -35 -31 -11 9 -15 37 -15 111
    l0 99 45 0 c38 0 45 3 45 20 0 17 -7 20 -45 20 -45 0 -45 0 -45 35 0 28 -4 35
    -20 35 -16 0 -20 -7 -20 -35z"/>
    <path d="M1822 964 c-12 -8 -22 -10 -22 -5 0 6 -9 11 -20 11 -19 0 -20 -7 -20
    -150 l0 -150 25 0 25 0 0 111 c0 121 8 149 44 149 32 0 36 -14 36 -146 l0
    -114 26 0 26 0 -4 136 c-3 128 -5 137 -27 155 -28 23 -59 24 -89 3z"/>
    <path d="M2315 971 c-33 -14 -44 -34 -51 -93 -9 -78 3 -165 27 -189 24 -24 95
    -26 127 -3 30 20 32 84 3 84 -13 0 -21 -8 -23 -22 -2 -18 -11 -24 -37 -26 -39
    -4 -51 9 -51 56 l0 32 65 0 65 0 0 63 c0 50 -4 68 -19 81 -22 20 -78 29 -106
    17z m73 -53 c7 -7 12 -22 12 -35 0 -21 -5 -23 -45 -23 -40 0 -45 2 -45 23 0
    29 18 47 45 47 12 0 26 -5 33 -12z"/>
    <path d="M2542 964 c-12 -8 -22 -10 -22 -5 0 6 -9 11 -20 11 -19 0 -20 -7 -20
    -150 l0 -150 25 0 25 0 0 114 c0 63 3 121 6 130 3 9 17 16 30 16 19 0 26 -7
    31 -30 4 -21 11 -30 24 -30 27 0 26 63 -1 90 -24 24 -48 25 -78 4z"/>
    <path d="M2682 964 c-18 -13 -22 -25 -22 -74 0 -65 2 -68 69 -84 39 -10 46
    -16 49 -40 4 -36 -15 -58 -47 -54 -19 2 -28 11 -35 36 -6 22 -15 32 -29 32
    -17 0 -19 -5 -14 -46 2 -26 11 -50 18 -55 8 -5 37 -9 66 -9 69 0 83 15 83 89
    0 63 -8 75 -55 86 -66 15 -66 15 -63 48 3 28 7 32 35 35 24 2 33 -1 38 -17 3
    -12 15 -21 26 -21 14 0 19 7 19 29 0 37 -31 61 -80 61 -20 0 -46 -7 -58 -16z"/>
    <path d="M3493 970 c-35 -14 -43 -42 -43 -154 0 -93 3 -109 20 -126 27 -27
    102 -28 129 -1 25 25 35 95 28 180 -5 54 -11 70 -32 89 -27 23 -64 27 -102 12z
    m75 -52 c13 -13 17 -153 6 -182 -7 -19 -55 -21 -72 -4 -15 15 -16 152 -2 179
    12 21 50 25 68 7z"/>
    <path d="M4213 968 c-33 -16 -46 -68 -41 -171 4 -79 7 -92 27 -108 30 -24 92
    -25 121 -1 13 11 23 33 27 60 5 40 4 42 -20 42 -22 0 -26 -5 -29 -32 -3 -30
    -6 -33 -38 -33 l-35 0 0 94 c0 78 3 96 18 105 22 14 51 -3 55 -33 2 -13 11
    -21 23 -21 15 0 19 7 19 33 0 18 -6 41 -13 51 -16 21 -84 30 -114 14z"/>
    <path d="M4513 970 c-35 -14 -43 -42 -43 -148 0 -85 3 -103 21 -126 16 -21 29
    -26 64 -26 52 0 83 23 91 68 6 27 4 32 -13 32 -11 0 -25 -11 -31 -25 -9 -19
    -19 -25 -41 -25 -34 0 -51 22 -51 64 0 25 2 26 70 26 l70 0 0 44 c0 102 -55
    149 -137 116z m85 -77 c3 -33 3 -33 -42 -33 -49 0 -57 11 -35 51 8 15 19 19
    42 17 28 -3 32 -7 35 -35z"/>
    <path d="M4752 971 c-7 -4 -24 -6 -38 -3 l-24 4 0 -151 c0 -144 1 -151 20
    -151 19 0 20 7 20 104 0 125 9 156 45 156 36 0 45 -31 45 -156 0 -97 1 -104
    20 -104 19 0 20 7 20 130 0 126 -1 132 -25 155 -24 25 -59 32 -83 16z"/>
    <path d="M4943 968 c-33 -16 -46 -68 -41 -171 4 -79 7 -92 27 -108 30 -24 92
    -25 121 -1 13 11 23 33 27 60 5 40 4 42 -20 42 -22 0 -26 -5 -29 -32 -3 -30
    -6 -33 -38 -33 l-35 0 0 94 c0 78 3 96 18 105 22 14 51 -3 55 -33 2 -13 11
    -21 23 -21 15 0 19 7 19 33 0 18 -6 41 -13 51 -16 21 -84 30 -114 14z"/>
    <path d="M5152 970 c-32 -14 -42 -49 -42 -156 0 -87 2 -97 25 -119 35 -36 105
    -35 134 1 27 34 28 74 2 74 -12 0 -21 -9 -25 -25 -5 -21 -12 -25 -41 -25 -39
    0 -41 2 -50 53 l-7 37 72 0 72 0 -4 65 c-2 41 -10 71 -20 81 -19 19 -85 27
    -116 14z m88 -66 c16 -41 13 -44 -40 -44 -50 0 -50 0 -44 28 10 40 12 42 45
    42 22 0 32 -6 39 -26z"/>
    <path d="M1980 820 c0 -143 1 -150 20 -150 19 0 20 7 20 150 0 143 -1 150 -20
    150 -19 0 -20 -7 -20 -150z"/>
    <path d="M2050 963 c1 -5 16 -71 34 -148 33 -140 33 -140 62 -140 28 0 29 1
    55 115 44 186 44 182 18 178 -20 -3 -25 -16 -46 -107 -13 -57 -25 -106 -26
    -108 -2 -2 -14 46 -27 107 -21 102 -25 110 -47 110 -12 0 -23 -3 -23 -7z"/>
    <path d="M2860 820 l0 -150 25 0 25 0 0 150 0 150 -25 0 -25 0 0 -150z"/>
    <path d="M3117 903 c9 -38 26 -108 38 -158 24 -96 21 -125 -15 -125 -15 0 -20
    -7 -20 -25 0 -21 5 -25 28 -25 53 0 58 12 117 263 30 130 30 137 6 137 -16 0
    -23 -15 -40 -91 -12 -50 -21 -98 -21 -107 0 -39 -19 10 -40 101 -20 89 -24 97
    -45 97 l-23 0 15 -67z"/>
    <path d="M4380 820 l0 -150 25 0 25 0 0 150 0 150 -25 0 -25 0 0 -150z"/>
    <path d="M6370 865 c0 -24 2 -25 65 -25 63 0 65 1 65 25 0 24 -2 25 -65 25
    -63 0 -65 -1 -65 -25z"/>
    <path d="M5340 706 c0 -19 6 -37 13 -40 10 -5 10 -7 0 -12 -17 -8 -17 -44 0
    -44 25 0 37 25 37 77 0 50 -1 53 -25 53 -22 0 -25 -4 -25 -34z"/>
  </g>
</svg>
